<?xml version="1.0" encoding="UTF-8"?>
<svg version="1.1" viewBox="70 0 600 600" xmlns="http://www.w3.org/2000/svg" xmlns:xlink="http://www.w3.org/1999/xlink">
 <defs>
  <symbol id="m" overflow="visible">
   <path d="m37.516-2.25c-1.9297 1.0117-3.9453 1.7734-6.0469 2.2812-2.0938 0.50781-4.2812 0.76562-6.5625 0.76562-6.793 0-12.18-1.8984-16.156-5.7031-3.9688-3.8008-5.9531-8.957-5.9531-15.469 0-6.5195 1.9844-11.68 5.9531-15.484 3.9766-3.8008 9.3633-5.7031 16.156-5.7031 2.2812 0 4.4688 0.25781 6.5625 0.76562 2.1016 0.51172 4.1172 1.2656 6.0469 2.2656v8.4531c-1.9492-1.332-3.8711-2.3047-5.7656-2.9219-1.8984-0.625-3.8906-0.9375-5.9844-0.9375-3.7617 0-6.7188 1.2031-8.875 3.6094-2.1484 2.4062-3.2188 5.7266-3.2188 9.9531 0 4.2109 1.0703 7.5156 3.2188 9.9219 2.1562 2.4062 5.1133 3.6094 8.875 3.6094 2.0938 0 4.0859-0.30469 5.9844-0.92188 1.8945-0.625 3.8164-1.5977 5.7656-2.9219z"/>
  </symbol>
  <symbol id="h" overflow="visible">
   <path d="m27.453-22.281c-0.85547-0.40625-1.7109-0.70312-2.5625-0.89062-0.84375-0.19531-1.6953-0.29688-2.5469-0.29688-2.5234 0-4.4609 0.80859-5.8125 2.4219-1.3555 1.6172-2.0312 3.9297-2.0312 6.9375v14.109h-9.7969v-30.625h9.7969v5.0312c1.25-2.0078 2.6914-3.4727 4.3281-4.3906 1.6328-0.91406 3.5859-1.375 5.8594-1.375 0.33203 0 0.6875 0.015625 1.0625 0.046875 0.38281 0.023438 0.94141 0.078125 1.6719 0.17188z"/>
  </symbol>
  <symbol id="b" overflow="visible">
   <path d="m35.281-15.391v2.7812h-22.891c0.23828 2.3047 1.0664 4.0273 2.4844 5.1719 1.4258 1.1484 3.4141 1.7188 5.9688 1.7188 2.0508 0 4.1562-0.30078 6.3125-0.90625 2.1641-0.61328 4.3906-1.5391 6.6719-2.7812v7.5469c-2.3125 0.875-4.6328 1.5391-6.9531 1.9844-2.3125 0.44531-4.625 0.67188-6.9375 0.67188-5.543 0-9.8516-1.4062-12.922-4.2188-3.0742-2.8203-4.6094-6.7734-4.6094-11.859 0-5 1.5039-8.9258 4.5156-11.781 3.0195-2.8633 7.1758-4.2969 12.469-4.2969 4.8125 0 8.6602 1.4492 11.547 4.3438 2.8945 2.8984 4.3438 6.7734 4.3438 11.625zm-10.062-3.2656c0-1.8516-0.54688-3.3477-1.6406-4.4844-1.0859-1.1445-2.5-1.7188-4.25-1.7188-1.8984 0-3.4375 0.53906-4.625 1.6094-1.1797 1.0625-1.9141 2.5938-2.2031 4.5938z"/>
  </symbol>
  <symbol id="a" overflow="visible">
   <path d="m18.438-13.781c-2.043 0-3.5781 0.35156-4.6094 1.0469-1.0312 0.6875-1.5469 1.7031-1.5469 3.0469 0 1.2422 0.41016 2.2148 1.2344 2.9219 0.83203 0.69922 1.9883 1.0469 3.4688 1.0469 1.8438 0 3.3906-0.66016 4.6406-1.9844 1.2578-1.3203 1.8906-2.9727 1.8906-4.9531v-1.125zm14.953-3.6875v17.469h-9.875v-4.5469c-1.3125 1.8672-2.793 3.2266-4.4375 4.0781-1.6367 0.84375-3.6328 1.2656-5.9844 1.2656-3.168 0-5.7422-0.92578-7.7188-2.7812-1.9805-1.8516-2.9688-4.2539-2.9688-7.2031 0-3.5938 1.2344-6.2266 3.7031-7.9062 2.4688-1.6758 6.3477-2.5156 11.641-2.5156h5.7656v-0.76562c0-1.5508-0.60938-2.6875-1.8281-3.4062s-3.125-1.0781-5.7188-1.0781c-2.0938 0-4.0469 0.21484-5.8594 0.64062-1.8047 0.41797-3.4766 1.043-5.0156 1.875v-7.4688c2.0938-0.50781 4.1953-0.89453 6.3125-1.1562 2.1133-0.25781 4.2266-0.39062 6.3438-0.39062 5.5195 0 9.5039 1.0898 11.953 3.2656 2.457 2.1797 3.6875 5.7188 3.6875 10.625z"/>
  </symbol>
  <symbol id="g" overflow="visible">
   <path d="m15.391-39.328v8.7031h10.094v7h-10.094v12.984c0 1.4297 0.28125 2.3906 0.84375 2.8906 0.57031 0.5 1.6953 0.75 3.375 0.75h5.0312v7h-8.3906c-3.8672 0-6.6055-0.80469-8.2188-2.4219-1.6172-1.6133-2.4219-4.3516-2.4219-8.2188v-12.984h-4.875v-7h4.875v-8.7031z"/>
  </symbol>
  <symbol id="f" overflow="visible">
   <path d="m25.547-26.141v-16.406h9.8438v42.547h-9.8438v-4.4375c-1.3555 1.8125-2.8438 3.1406-4.4688 3.9844-1.6172 0.83203-3.4922 1.25-5.625 1.25-3.7734 0-6.8711-1.5-9.2969-4.5-2.4297-3-3.6406-6.8594-3.6406-11.578 0-4.7266 1.2109-8.5859 3.6406-11.578 2.4258-3 5.5234-4.5 9.2969-4.5 2.1133 0 3.9844 0.42188 5.6094 1.2656 1.6328 0.84375 3.1289 2.1641 4.4844 3.9531zm-6.4531 19.828c2.0938 0 3.6914-0.76562 4.7969-2.2969 1.1016-1.5312 1.6562-3.7539 1.6562-6.6719 0-2.9141-0.55469-5.1406-1.6562-6.6719-1.1055-1.5312-2.7031-2.2969-4.7969-2.2969-2.0859 0-3.6797 0.76562-4.7812 2.2969-1.1055 1.5312-1.6562 3.7578-1.6562 6.6719 0 2.918 0.55078 5.1406 1.6562 6.6719 1.1016 1.5312 2.6953 2.2969 4.7812 2.2969z"/>
  </symbol>
  <symbol id="e" overflow="visible">
   <path d="m21-6.3125c2.0938 0 3.6914-0.76562 4.7969-2.2969 1.1016-1.5312 1.6562-3.7539 1.6562-6.6719 0-2.9141-0.55469-5.1406-1.6562-6.6719-1.1055-1.5312-2.7031-2.2969-4.7969-2.2969s-3.7031 0.77344-4.8281 2.3125c-1.1172 1.5312-1.6719 3.75-1.6719 6.6562 0 2.8984 0.55469 5.1172 1.6719 6.6562 1.125 1.543 2.7344 2.3125 4.8281 2.3125zm-6.5-19.828c1.3438-1.7891 2.832-3.1094 4.4688-3.9531 1.6445-0.84375 3.5352-1.2656 5.6719-1.2656 3.7695 0 6.8672 1.5 9.2969 4.5 2.4258 2.9922 3.6406 6.8516 3.6406 11.578 0 4.7188-1.2148 8.5781-3.6406 11.578-2.4297 3-5.5273 4.5-9.2969 4.5-2.1367 0-4.0273-0.42188-5.6719-1.2656-1.6367-0.85156-3.125-2.1758-4.4688-3.9688v4.4375h-9.7969v-42.547h9.7969z"/>
  </symbol>
  <symbol id="d" overflow="visible">
   <path d="m0.6875-30.625h9.7812l8.2344 20.781 7-20.781h9.7969l-12.891 33.531c-1.293 3.4062-2.8047 5.7852-4.5312 7.1406-1.7188 1.3633-3.9922 2.0469-6.8125 2.0469h-5.6562v-6.4375h3.0625c1.6562 0 2.8594-0.26562 3.6094-0.79688 0.75781-0.52344 1.3516-1.4648 1.7812-2.8281l0.26562-0.85938z"/>
  </symbol>
  <symbol id="c" overflow="visible">
   <path d="m3.1406-40.828h34.328v6.375l-21.906 26.5h22.531v7.9531h-35.578v-6.375l21.906-26.5h-21.281z"/>
  </symbol>
  <symbol id="l" overflow="visible">
   <path d="m4.375-11.922v-18.703h9.8438v3.0625c0 1.6562-0.011719 3.7422-0.03125 6.25-0.011719 2.5-0.015625 4.1719-0.015625 5.0156 0 2.4609 0.0625 4.2305 0.1875 5.3125 0.125 1.0859 0.34375 1.875 0.65625 2.375 0.39453 0.63672 0.91406 1.125 1.5625 1.4688 0.65625 0.34375 1.3984 0.51562 2.2344 0.51562 2.0391 0 3.6445-0.78125 4.8125-2.3438 1.1641-1.5703 1.75-3.75 1.75-6.5312v-15.125h9.7969v30.625h-9.7969v-4.4375c-1.4805 1.793-3.043 3.1172-4.6875 3.9688-1.6484 0.84375-3.4648 1.2656-5.4531 1.2656-3.543 0-6.2422-1.082-8.0938-3.25-1.8438-2.1758-2.7656-5.332-2.7656-9.4688z"/>
  </symbol>
  <symbol id="k" overflow="visible">
   <path d="m4.7031-42.547h9.7969v42.547h-9.7969z"/>
  </symbol>
  <symbol id="j" overflow="visible">
   <path d="m24.859-42.547v6.4219h-5.4219c-1.3867 0-2.3555 0.25-2.9062 0.75-0.54297 0.5-0.8125 1.3711-0.8125 2.6094v2.1406h8.375v7h-8.375v23.625h-9.7812v-23.625h-4.875v-7h4.875v-2.1406c0-3.332 0.92578-5.7969 2.7812-7.3906 1.8633-1.5938 4.7422-2.3906 8.6406-2.3906z"/>
  </symbol>
  <symbol id="i" overflow="visible">
   <path d="m5.1406-40.828h13.406l9.2969 21.844 9.3438-21.844h13.375v40.828h-9.9531v-29.859l-9.4062 22.016h-6.6719l-9.4062-22.016v29.859h-9.9844z"/>
  </symbol>
 </defs>
 <g>
  <path d="m574 168h-11.199v-11.199c-0.011719-8.9102-3.5547-17.449-9.8516-23.75-6.3008-6.2969-14.84-9.8398-23.75-9.8516h-78.398c0-36.012-19.215-69.289-50.402-87.293-31.188-18.008-69.609-18.008-100.8 0-31.188 18.004-50.402 51.281-50.402 87.293h-78.398c-8.9102 0.011719-17.449 3.5547-23.75 9.8516-6.2969 6.3008-9.8398 14.84-9.8516 23.75v11.199h-11.199c-8.9102 0.007812-17.449 3.5547-23.75 9.8516-6.2969 6.3008-9.8398 14.84-9.8516 23.75v302.4c0.011718 8.9102 3.5547 17.449 9.8516 23.75 6.3008 6.2969 14.84 9.8398 23.75 9.8516h448c8.9102-0.011718 17.449-3.5547 23.75-9.8516 6.2969-6.3008 9.8398-14.84 9.8516-23.75v-302.4c-0.011718-8.9102-3.5547-17.449-9.8516-23.75-6.3008-6.2969-14.84-9.8438-23.75-9.8516zm-44.801-22.398c6.1836 0.003907 11.195 5.0156 11.199 11.199v291.2c-0.003907 6.1836-5.0156 11.195-11.199 11.199h-125.12c-15.012-0.035157-29.777 3.8047-42.867 11.148l0.066407-203.18c7.3711-2.5664 13.957-6.9922 19.109-12.855 5.4922-5.4844 8.1797-7.9141 14.461-7.9141 6.2891 0 8.9688 2.4297 14.449 7.9141 1.2812 1.2812 2.5586 2.5547 3.8828 3.7773 4.293 3.9609 9.9609 6.0859 15.797 5.9297 5.8359-0.15234 11.383-2.582 15.461-6.7617 4.0742-4.1797 6.3594-9.7891 6.3672-15.625v-96.031zm-257.6-22.402c0-28.008 14.941-53.891 39.199-67.895 24.258-14.008 54.141-14.008 78.398 0 24.258 14.004 39.199 39.887 39.199 67.895v118.43l-0.066407-0.039062c-1.0938-1.0039-2.1445-2.0547-3.1914-3.1055-7.3906-9.1602-18.527-14.488-30.297-14.488s-22.906 5.3242-30.297 14.48c-5.4922 5.4922-8.1797 7.918-14.469 7.918-6.3086 0-9-2.4297-14.504-7.9258v0.003906c-7.4102-9.1562-18.562-14.477-30.344-14.477s-22.93 5.3242-30.34 14.48c-1.0508 1.0625-2.1094 2.1211-3.293 3.1758zm-112 33.602c0.003907-6.1836 5.0156-11.195 11.199-11.199h78.398v96.059c0.003906 5.832 2.2852 11.438 6.3555 15.617 4.0703 4.1836 9.6094 6.6094 15.445 6.7734 5.832 0.16016 11.496-1.9609 15.793-5.9102 1.3555-1.2344 2.6484-2.5195 3.9375-3.8164 5.5-5.4961 8.2031-7.9258 14.516-7.9258 6.3008 0 9 2.4297 14.492 7.918v0.003906c5.1328 5.8125 11.672 10.219 18.988 12.797l0.066407 203.23c-13.09-7.3438-27.855-11.184-42.867-11.148h-125.12c-6.1836-0.003907-11.195-5.0156-11.199-11.199zm-44.801 347.2v-302.4c0.003907-6.1836 5.0156-11.195 11.199-11.203h11.199v257.6c0.011719 8.9102 3.5547 17.449 9.8516 23.75 6.3008 6.2969 14.84 9.8398 23.75 9.8516h125.12c15.781-0.023437 31.027 5.7148 42.875 16.141v17.457h-212.8c-6.1836-0.003907-11.195-5.0156-11.199-11.199zm470.4 0c-0.003907 6.1836-5.0156 11.195-11.199 11.199h-212.8v-17.457c11.848-10.426 27.094-16.164 42.875-16.141h125.12c8.9102-0.011718 17.449-3.5547 23.75-9.8516 6.2969-6.3008 9.8398-14.84 9.8516-23.75v-257.6h11.199c6.1836 0.007812 11.195 5.0195 11.199 11.203zm-212.8-369.6v-22.398c0-6.1875 5.0156-11.199 11.203-11.199 6.1836 0 11.199 5.0117 11.199 11.199v22.398c0 6.1875-5.0156 11.203-11.199 11.203-6.1875 0-11.203-5.0156-11.203-11.203zm-67.199 0v-22.398c0-6.1875 5.0156-11.199 11.199-11.199 6.1875 0 11.203 5.0117 11.203 11.199v22.398c0 6.1875-5.0156 11.203-11.203 11.203-6.1836 0-11.199-5.0156-11.199-11.203zm22.398 56h0.003906c-0.003906-2.9688 1.1758-5.8164 3.2773-7.918 2.1016-2.1016 4.9492-3.2812 7.9219-3.2812h22.398c6.1875 0 11.199 5.0156 11.199 11.199 0 6.1875-5.0117 11.203-11.199 11.203h-22.398c-2.9727 0-5.8203-1.1797-7.9219-3.2812-2.1016-2.1016-3.2812-4.9492-3.2773-7.9219zm67.199 112h112c6.1836 0 11.199 5.0156 11.199 11.203 0 6.1836-5.0156 11.199-11.199 11.199h-112c-6.1875 0-11.199-5.0156-11.199-11.199 0-6.1875 5.0117-11.203 11.199-11.203zm123.2 67.199 0.003906 0.003906c0 2.9688-1.1797 5.8164-3.2812 7.918-2.0977 2.1016-4.9492 3.2812-7.918 3.2812h-112c-6.1875 0-11.199-5.0156-11.199-11.199 0-6.1875 5.0117-11.203 11.199-11.203h112c2.9688 0 5.8203 1.1797 7.918 3.2812 2.1016 2.1016 3.2812 4.9492 3.2812 7.9219zm0 56 0.003906 0.003906c0 2.9688-1.1797 5.8164-3.2812 7.918-2.0977 2.1016-4.9492 3.2812-7.918 3.2812h-112c-6.1875 0-11.199-5.0156-11.199-11.199 0-6.1875 5.0117-11.203 11.199-11.203h112c2.9688 0 5.8203 1.1797 7.918 3.2812 2.1016 2.1016 3.2812 4.9492 3.2812 7.9219zm-257.6-112c0-2.9727 1.1797-5.8203 3.2812-7.9219 2.1016-2.1016 4.9492-3.2812 7.9219-3.2812h33.602-0.003906c6.1875 0 11.199 5.0156 11.199 11.203 0 6.1836-5.0117 11.199-11.199 11.199h-33.598c-2.9727 0-5.8203-1.1797-7.9219-3.2812-2.1016-2.1016-3.2812-4.9492-3.2812-7.918zm-78.398 0c0-2.9727 1.1797-5.8203 3.2812-7.9219 2.0977-2.1016 4.9492-3.2812 7.918-3.2812h33.602c6.1836 0 11.199 5.0156 11.199 11.203 0 6.1836-5.0156 11.199-11.199 11.199h-33.602c-2.9688 0-5.8203-1.1797-7.918-3.2812-2.1016-2.1016-3.2812-4.9492-3.2812-7.918zm0 56c0-2.9727 1.1797-5.8203 3.2812-7.9219 2.0977-2.1016 4.9492-3.2812 7.918-3.2812h112c6.1875 0 11.199 5.0156 11.199 11.203 0 6.1836-5.0117 11.199-11.199 11.199h-112c-2.9688 0-5.8203-1.1797-7.918-3.2812-2.1016-2.1016-3.2812-4.9492-3.2812-7.918zm0 56c0-2.9727 1.1797-5.8203 3.2812-7.9219 2.0977-2.1016 4.9492-3.2812 7.918-3.2812h112c6.1875 0 11.199 5.0156 11.199 11.203 0 6.1836-5.0117 11.199-11.199 11.199h-112c-2.9688 0-5.8203-1.1797-7.918-3.2812-2.1016-2.1016-3.2812-4.9492-3.2812-7.918z"/>
 </g>
</svg>
